# xmcd
#
# Track frame offsets:
#	225
#	13240
#	26867
#	40481
#	52448
#	68220
#	84115
#	99513
#	112520
#	125635
#	139436
#	148694
#	161668
#	176240
#
# Disc length: 2623 seconds
#
# Revision: 0
# Processed by: cddbd v1.5.1PL0 Copyright (c) Steve Scherf et al.
# Submitted via: audiograbber 1.83.01
#
DISCID=d00a3c0e
DTITLE=Mariachi Oro y Sol - Payaso
DYEAR=2004
DGENRE=Mariachi
TTITLE0=Besame morenita
TTITLE1=Allá en el rancho grande
TTITLE2=Payaso 
TTITLE3=Si nos dejan
TTITLE4=Ella
TTITLE5=Fueron tres años
TTITLE6=El Mariachi loco
TTITLE7=Adolorido
TTITLE8=Despasito
TTITLE9=Guadalajara
TTITLE10=La Puntada
TTITLE11=La retirada
TTITLE12=El de las botas negras
TTITLE13=Yo no fui
EXTD=
EXTT0=
EXTT1=
EXTT2=
EXTT3=
EXTT4=
EXTT5=
EXTT6=
EXTT7=
EXTT8=
EXTT9=
EXTT10=
EXTT11=
EXTT12=
EXTT13=
PLAYORDER=
